<?xml version="1.0" encoding="utf-8"?>
<!-- Generator: Adobe Illustrator 24.2.0, SVG Export Plug-In . SVG Version: 6.00 Build 0)  -->
<svg version="1.1" id="Layer_1" xmlns="http://www.w3.org/2000/svg" xmlns:xlink="http://www.w3.org/1999/xlink" x="0px" y="0px"
	 viewBox="0 0 512 512" style="enable-background:new 0 0 512 512;" xml:space="preserve">
<style type="text/css">
	.st0{fill:#FDDF6D;}
	.st1{fill:#FCC56B;}
	.st2{fill:#7F184C;}
	.st3{fill:#F9A880;}
	.st4{fill:#FCEB88;}
	.st5{opacity:0.2;}
	.st6{enable-background:new    ;}
	.st7{fill:#7F184C;stroke:#000000;stroke-width:0.25;stroke-miterlimit:10;}
	.st8{fill:none;}
</style>
<circle class="st0" cx="256" cy="256" r="256"/>
<path class="st1" d="M310.9,474.2c-141.4,0-256-114.6-256-256c0-75.5,32.7-143.4,84.8-190.3C56.7,70.3,0,156.5,0,256
	c0,141.4,114.6,256,256,256c65.8,0,125.9-24.9,171.2-65.7C392.3,464.1,352.8,474.2,310.9,474.2z"/>
<g>
	<path class="st2" d="M302.1,398.4c-27.6,0-53.1-15-66.5-39.1c-2.8-5-1-11.4,4-14.2c5-2.8,11.4-1,14.2,4
		c9.8,17.5,28.3,28.4,48.3,28.4c19.5,0,38.3-11,48.9-28.7c3-4.9,9.4-6.5,14.3-3.6c4.9,3,6.5,9.4,3.6,14.3
		C354.5,383.6,328.9,398.4,302.1,398.4z"/>
	<path class="st2" d="M423,222.7c-3.7,0-7.2-1.9-9.1-5.3c-6.7-12-19.4-19.4-33.1-19.4c-13.4,0-26.2,7.6-33.5,19.7
		c-3,4.9-9.4,6.5-14.3,3.6c-4.9-3-6.5-9.4-3.6-14.3c11-18.4,30.7-29.9,51.4-29.9c21.3,0,40.9,11.5,51.3,30.1c2.8,5,1,11.4-4,14.2
		C426.4,222.3,424.7,222.7,423,222.7z"/>
	<circle class="st2" cx="213.6" cy="208.3" r="31.2"/>
</g>
<g>
	<path class="st3" d="M174.2,281.6c-19,0-34.4,15.4-34.4,34.4h68.8C208.7,297,193.3,281.6,174.2,281.6z"/>
	<path class="st3" d="M427.2,281.6c-19,0-34.4,15.4-34.4,34.4h68.8C461.7,297,446.3,281.6,427.2,281.6z"/>
</g>
<ellipse transform="matrix(0.2723 -0.9622 0.9622 0.2723 141.6154 350.219)" class="st4" cx="302.3" cy="81.5" rx="29.9" ry="53.5"/>
<path class="st0" d="M249,140c-37.4-0.3-55.7,3.9-72,14c-40.1,24.8-52.3,75.2-58,99c-4.9,20.4-9.6,40-6,62
	c10.5,63.6,84.8,112.7,152,123c76.3,11.7,177.8-21.1,209-104c15.6-41.5,13.6-95.5-14-135C419.7,141.4,343.3,140.8,249,140z"/>
<g>
	<g class="st5">
		<g class="st6">
			<path d="M161.1,246.2c0.7,12.5-3.3,24.1-13.2,33.2c-7.2,6.6-17.5,11.4-31.3,13.6c2.4,12.6,7.6,28.7,10,41.1
				c1.3,7.3-3.3,14.1-10.6,15.6c-7.1,1.2-13.9-3.3-15.4-10.6c-2-9.9-6.4-22.9-8.1-31.4C80.9,247.8,77.3,230,88,215.3
				c5-6.9,11.7-11.3,19.3-13.5c7.5-2.2,15.7-1.9,23.3,0.8c7.5,2.5,14.3,7.1,19.8,13.7C156.6,223.8,160.7,234,161.1,246.2z
				 M109.4,230.8c-3,3.9-2.2,12.8,2.3,36.5c11.5-1.8,21.1-16.6,20.3-30.6C131.4,222,118,219,109.4,230.8z"/>
			<path d="M263.2,246.7c2.5,16.9,1.8,41.9-3.7,54.4c-6.3,14.4-16.9,24.4-30.7,26.6c-13.8,2-26.9-4.3-37.2-16.4
				c-8.9-10.2-16.9-33.9-19.4-50.8c-2.5-16.9-0.5-33.1,4.8-45.6c6.2-14.6,16.9-24.6,30.7-26.6c13.8-2.2,26.9,4.3,37.1,16.2
				C253.8,214.9,260.7,229.8,263.2,246.7z M204.2,215.7c-27.1,4.1-2.5,89.4,20.7,86C252.9,297.4,235.3,210.9,204.2,215.7z"/>
			<path d="M366.5,279.3c-2.6,21.7-17.1,28.1-32.3,33.1c-9.1,3.1-18.6,2.6-27.6-0.7c-8.9-3.2-17-9-22.9-16.8
				c-4.3-5.9-3.1-14,2.8-18.5c5.7-4.2,14-3.1,18.5,2.8c11,40.9,39.6,3.1,30.5-9.2c-3.1-4-8.7-8.1-18.2-12.2
				c-7.7-3.4-14.1-7.2-19.3-11.2c-16.2-13-26.2-35.5-17.5-55.4c7.1-16.7,24.4-24.9,42.6-22.3c7.5,1,14.4,4.1,19.9,8.5
				c3.7,3,6.7,6.5,9.1,10.4c3.7,6.2,1.4,14.3-4.8,18c-8.4,4.9-17.2,0.9-17.6-10c-0.5-17.5-18.4-8.1-22.8,1.9c-3.6,8.6,1,23,7.5,28.3
				c3.5,2.8,8,5.4,13.2,7.8C345.9,241.4,368.2,257.4,366.5,279.3z"/>
			<path d="M438.3,158.9c1.3,7.3-5,19.1-12.1,20.3l-12.9,1L430.8,282c1.3,7.3-3.6,13.9-10.6,15.2c-7.3,1.3-14.1-3.5-15.4-10.6
				l-19.7-103.7l-12.9,1.2c-7.1,1.2-13.9-3.6-15.2-10.8c-1.3-7.3,3.6-13.9,10.6-15.2l55.5-9.8C430.3,147,437.1,151.6,438.3,158.9z"
				/>
		</g>
	</g>
	<g>
		<g class="st6">
			<path class="st7" d="M154.1,239.2c0.7,12.5-3.3,24.1-13.2,33.2c-7.2,6.6-17.5,11.4-31.3,13.6c2.4,12.6,7.6,28.7,10,41.1
				c1.3,7.3-3.3,14.1-10.6,15.6c-7.1,1.2-13.9-3.3-15.4-10.6c-2-9.9-6.4-22.9-8.1-31.4C73.9,240.8,70.3,223,81,208.3
				c5-6.9,11.7-11.3,19.3-13.5c7.5-2.2,15.7-1.9,23.3,0.8c7.5,2.5,14.3,7.1,19.8,13.7C149.6,216.8,153.7,227,154.1,239.2z
				 M102.4,223.8c-3,3.9-2.2,12.8,2.3,36.5c11.5-1.8,21.1-16.6,20.3-30.6C124.4,215,111,212,102.4,223.8z"/>
			<path class="st7" d="M256.2,239.7c2.5,16.9,1.8,41.9-3.7,54.4c-6.3,14.4-16.9,24.4-30.7,26.6c-13.8,2-26.9-4.3-37.2-16.4
				c-8.9-10.2-16.9-33.9-19.4-50.8c-2.5-16.9-0.5-33.1,4.8-45.6c6.2-14.6,16.9-24.6,30.7-26.6c13.8-2.2,26.9,4.3,37.1,16.2
				C246.8,207.9,253.7,222.8,256.2,239.7z M197.2,208.7c-27.1,4.1-2.5,89.4,20.7,86C245.9,290.4,228.3,203.9,197.2,208.7z"/>
			<path class="st7" d="M359.5,272.3c-2.6,21.7-17.1,28.1-32.3,33.1c-9.1,3.1-18.6,2.6-27.6-0.7c-8.9-3.2-17-9-22.9-16.8
				c-4.3-5.9-3.1-14,2.8-18.5c5.7-4.2,14-3.1,18.5,2.8c11,40.9,39.6,3.1,30.5-9.2c-3.1-4-8.7-8.1-18.2-12.2
				c-7.7-3.4-14.1-7.2-19.3-11.2c-16.2-13-26.2-35.5-17.5-55.4c7.1-16.7,24.4-24.9,42.6-22.3c7.5,1,14.4,4.1,19.9,8.5
				c3.7,3,6.7,6.5,9.1,10.4c3.7,6.2,1.4,14.3-4.8,18c-8.4,4.9-17.2,0.9-17.6-10c-0.5-17.5-18.4-8.1-22.8,1.9c-3.6,8.6,1,23,7.5,28.3
				c3.5,2.8,8,5.4,13.2,7.8C338.9,234.4,361.2,250.4,359.5,272.3z"/>
			<path class="st7" d="M431.3,151.9c1.3,7.3-5,19.1-12.1,20.3l-12.9,1L423.8,275c1.3,7.3-3.6,13.9-10.6,15.2
				c-7.3,1.3-14.1-3.5-15.4-10.6l-19.7-103.7l-12.9,1.2c-7.1,1.2-13.9-3.6-15.2-10.8c-1.3-7.3,3.6-13.9,10.6-15.2l55.5-9.8
				C423.3,140,430.1,144.6,431.3,151.9z"/>
		</g>
	</g>
</g>
<polygon class="st8" points="402,173 410,173 410,173 "/>
</svg>
