<?xml version="1.0" encoding="utf-8"?>
<!-- Generator: Adobe Illustrator 24.2.0, SVG Export Plug-In . SVG Version: 6.00 Build 0)  -->
<svg version="1.1" id="Layer_1" xmlns="http://www.w3.org/2000/svg" xmlns:xlink="http://www.w3.org/1999/xlink" x="0px" y="0px"
	 viewBox="0 0 512 512" style="enable-background:new 0 0 512 512;" xml:space="preserve">
<style type="text/css">
	.st0{fill:#FDDF6D;}
	.st1{fill:#FCC56B;}
	.st2{fill:#7F184C;}
	.st3{fill:#F9A880;}
	.st4{fill:#FCEB88;}
</style>
<circle class="st0" cx="256" cy="256" r="256"/>
<path class="st1" d="M310.9,474.2c-141.4,0-256-114.6-256-256c0-75.5,32.7-143.4,84.8-190.3C56.7,70.3,0,156.5,0,256
	c0,141.4,114.6,256,256,256c65.8,0,125.9-24.9,171.2-65.7C392.3,464.1,352.8,474.2,310.9,474.2z"/>
<g>
	<path class="st2" d="M302.1,398.4c-27.6,0-53.1-15-66.5-39.1c-2.8-5-1-11.4,4-14.2c5-2.8,11.4-1,14.2,4
		c9.8,17.5,28.3,28.4,48.3,28.4c19.5,0,38.3-11,48.9-28.7c3-4.9,9.4-6.5,14.3-3.6c4.9,3,6.5,9.4,3.6,14.3
		C354.5,383.6,328.9,398.4,302.1,398.4z"/>
	<path class="st2" d="M423,222.7c-3.7,0-7.2-1.9-9.1-5.3c-6.7-12-19.4-19.4-33.1-19.4c-13.4,0-26.2,7.6-33.5,19.7
		c-3,4.9-9.4,6.5-14.3,3.6c-4.9-3-6.5-9.4-3.6-14.3c11-18.4,30.7-29.9,51.4-29.9c21.3,0,40.9,11.5,51.3,30.1c2.8,5,1,11.4-4,14.2
		C426.4,222.3,424.7,222.7,423,222.7z"/>
	<circle class="st2" cx="213.6" cy="208.3" r="31.2"/>
</g>
<g>
	<path class="st3" d="M174.2,281.6c-19,0-34.4,15.4-34.4,34.4h68.8C208.7,297,193.3,281.6,174.2,281.6z"/>
	<path class="st3" d="M427.2,281.6c-19,0-34.4,15.4-34.4,34.4h68.8C461.7,297,446.3,281.6,427.2,281.6z"/>
</g>
<ellipse transform="matrix(0.2723 -0.9622 0.9622 0.2723 141.5766 350.1362)" class="st4" cx="302.3" cy="81.5" rx="29.9" ry="53.5"/>
<path class="st0" d="M249,140c-37.4-0.3-55.7,3.9-72,14c-40.1,24.8-52.3,75.2-58,99c-4.9,20.4-9.6,40-6,62
	c10.5,63.6,84.8,112.7,152,123c76.3,11.7,177.8-21.1,209-104c15.6-41.5,13.6-95.5-14-135C419.7,141.4,343.3,140.8,249,140z"/>
<g>
	
		<image style="overflow:visible;opacity:0.2;" width="359" height="188" xlink:href="AEFF4293.png"  transform="matrix(1 0 0 1 95 163)">
	</image>
	<g>
		<g>
			<path class="st2" d="M97.9,251.2c0-0.1,0-0.2,0.1-0.2c5.6-2.6,13.7-5.5,25.3-8.6c11.8-3.1,20.8-3.1,27.7-0.1
				c6.5,2.8,12,8.9,14.2,17.2c2.2,8.3,1.3,16.1-2.5,22.2c-4.9,7.9-13.8,13.2-25.1,16.2c-2.4,0.6-4.7,1.1-6.5,1.3
				c-0.1,0-0.2,0.1-0.1,0.2l7.9,29.9c0,0.1,0,0.2-0.1,0.2l-18.6,5c-0.1,0-0.2,0-0.2-0.1L97.9,251.2z M127,284.3
				c0,0.1,0.1,0.1,0.2,0.1c1.7-0.1,3.7-0.5,6.4-1.2c10.2-2.7,15.1-9.5,12.8-18.2c-2.1-7.8-8.7-11-18.2-8.5c-3.8,1-6.3,2.1-7.6,2.8
				c-0.1,0-0.1,0.1-0.1,0.2L127,284.3z"/>
			<path class="st2" d="M259,251.4c7.4,27.8-5,49-29.7,55.6c-25.1,6.7-44.8-8.4-51.2-32.5c-6.7-25.4,4.4-48.6,29.4-55.3
				C233.4,212.4,252.8,228.1,259,251.4z M198.1,268.8c4.4,16.6,15.3,26.2,28.1,22.8c12.9-3.4,17.1-17.7,12.7-34.2
				c-4-15.2-14.8-26.3-28-22.8C198,238,193.8,252.3,198.1,268.8z"/>
			<path class="st2" d="M278.4,271.6c0-0.1,0.1-0.2,0.2-0.2c5.8,1.2,14.4,1.7,22.4-0.4c8.8-2.3,12.5-7.2,11-12.7
				c-1.4-5.3-6.2-7.2-17.4-8.2c-15.4-1.2-26.6-6.5-29.9-18.8c-3.8-14.4,5.3-28.7,25.3-34c9.5-2.5,17-2.4,22.6-1.5
				c0.1,0,0.1,0.1,0.1,0.2l-0.2,16.2c0,0.1-0.1,0.2-0.2,0.2c-3.9-0.7-10.4-1.4-18.6,0.7c-8.3,2.2-11.3,7-10.1,11.4
				c1.4,5.4,6.8,6.5,18.9,7.8c16.4,1.6,25.5,7.5,28.7,19.4c3.8,14.2-4,29.1-27.2,35.3c-9.6,2.5-19.7,2.6-25.2,1.3
				c-0.1,0-0.1-0.1-0.1-0.2L278.4,271.6z"/>
			<path class="st2" d="M348.8,200.4l-22.4,6c-0.1,0-0.2,0-0.2-0.1l-4.2-15.8c0-0.1,0-0.2,0.1-0.2l64.7-17.2c0.1,0,0.2,0,0.2,0.1
				l4.2,15.8c0,0.1,0,0.2-0.1,0.2l-22.8,6.1c-0.1,0-0.1,0.1-0.1,0.2l18.1,68.2c0,0.1,0,0.2-0.1,0.2l-18.9,5c-0.1,0-0.2,0-0.2-0.1
				L349,200.5C349,200.4,348.9,200.4,348.8,200.4z"/>
			<path class="st2" d="M413.6,226.7l-17.9-55.8c0-0.1,0-0.2,0.1-0.2l19.6-5.2c0.1,0,0.2,0,0.2,0.1l12.3,57.3c0,0.1,0,0.2-0.1,0.2
				l-14,3.7C413.7,226.9,413.6,226.8,413.6,226.7z M414.5,246.7c-2.5-7.1,2.3-14.9,9.7-15.8c5.9-0.7,10.7,2.8,12.4,8.8
				c1.7,6.5-1.4,12.6-8.1,14.4C422.1,255.8,416.6,252.6,414.5,246.7z"/>
		</g>
	</g>
</g>
</svg>
